<svg width="519" height="326" viewBox="0 0 519 326" fill="none" xmlns="http://www.w3.org/2000/svg">
<g clip-path="url(#clip0)">
<path opacity="0.1" d="M515.749 224.566C510.542 237.092 499.646 248.405 487.951 259.12C477.67 268.54 466.673 277.644 454.959 286.43C451.713 288.869 448.415 291.277 445.065 293.655L442.738 295.297C440.674 296.757 438.576 298.204 436.442 299.637L436.186 299.81C434.116 301.219 432.028 302.614 429.922 303.995C423.032 308.522 415.749 313.017 407.697 316.74C404.954 318.011 402.124 319.195 399.193 320.256C397.608 320.833 395.99 321.372 394.338 321.875C391.631 322.698 388.851 323.416 385.948 324.006C385.463 324.107 384.974 324.203 384.485 324.294C381.513 324.852 378.504 325.259 375.464 325.538C364.322 326.558 352.814 325.813 341.653 324.066C336.076 323.192 330.584 322.067 325.272 320.787C324.618 320.631 323.969 320.471 323.315 320.33C305.223 315.802 288.238 309.656 270.018 305.335C263.739 303.844 257.338 302.579 250.815 301.539C247.633 301.033 244.433 300.576 241.214 300.167C233.638 299.225 225.966 298.594 218.262 298.274C207.874 297.817 197.148 298.013 187.263 299.829C185.947 300.07 184.647 300.341 183.363 300.643C181.736 301.024 180.139 301.458 178.572 301.946C174.348 303.311 170.238 305.004 166.278 307.008C165.496 307.392 164.723 307.781 163.95 308.175C161.527 309.409 159.136 310.671 156.708 311.897C152.339 314.184 147.791 316.114 143.111 317.668C140.547 318.478 137.94 319.144 135.302 319.662C128.32 321.061 120.89 321.615 113.429 321.651C109.831 321.651 106.228 321.573 102.666 321.386H102.556C101.34 321.322 100.119 321.249 98.8987 321.157C93.3391 320.778 87.7977 320.192 82.3387 319.392C63.6343 316.648 45.8946 311.462 31.6251 303.551C12.2441 292.814 -0.0639884 276.804 1.78313 260.807C3.10904 249.283 11.3434 238.583 19.157 228.106C33.6917 208.597 47.3074 188.645 54.4718 167.614C60.2829 150.543 62.0158 132.494 75.3891 117.151C79.6731 112.24 85.1505 107.758 91.5286 103.83C96.296 100.911 101.293 98.3841 106.47 96.2754C112.321 93.8783 118.341 91.9143 124.48 90.3991C129.8 89.0789 135.192 88.0651 140.628 87.3626C143.582 86.9785 146.572 86.6813 149.58 86.4801C151.897 86.3185 154.224 86.2163 156.562 86.1737H156.923C158.353 86.1462 159.782 86.1462 161.212 86.1737C171.635 86.3351 182.031 87.3121 192.302 89.0958C198.73 90.1705 205.104 91.4875 211.345 92.9371C215.069 93.7999 218.76 94.7038 222.418 95.6489C223.534 95.937 224.649 96.2297 225.751 96.5269C251.775 103.501 274.672 113.131 299.746 121.034C299.874 121.075 299.997 121.116 300.125 121.148C305.271 122.731 310.497 124.044 315.78 125.081C319.662 125.858 323.63 126.53 327.667 127.12C333.849 128.035 340.163 128.757 346.523 129.379L347.926 129.517C357.258 130.431 366.672 131.113 375.816 131.908C379.062 132.192 382.281 132.484 385.454 132.823C387.466 133.024 389.459 133.237 391.434 133.463C392.852 133.628 394.274 133.792 395.696 133.966C397.117 134.14 398.622 134.323 400.085 134.51C401.036 134.629 401.982 134.753 402.933 134.885C408.694 135.649 414.441 136.504 420.124 137.483C423.581 138.077 427.019 138.717 430.416 139.408C432.876 139.908 435.314 140.435 437.731 140.99C439.524 141.396 441.301 141.822 443.062 142.271C457.377 145.87 470.774 150.589 482.318 156.959C512.297 173.463 525.712 200.613 515.749 224.566Z" fill="#800055"/>
<path opacity="0.1" d="M113.84 41.3399C119.302 41.3399 123.73 36.9114 123.73 31.4485C123.73 25.9857 119.302 21.5571 113.84 21.5571C108.378 21.5571 103.951 25.9857 103.951 31.4485C103.951 36.9114 108.378 41.3399 113.84 41.3399Z" fill="#F529B1"/>
<path opacity="0.1" d="M315.977 19.7828C321.438 19.7828 325.866 15.3543 325.866 9.8914C325.866 4.42853 321.438 0 315.977 0C310.515 0 306.087 4.42853 306.087 9.8914C306.087 15.3543 310.515 19.7828 315.977 19.7828Z" fill="#F529B1"/>
<path opacity="0.1" d="M435.834 41.9344C441.296 41.9344 445.723 37.5059 445.723 32.043C445.723 26.5801 441.296 22.1516 435.834 22.1516C430.372 22.1516 425.944 26.5801 425.944 32.043C425.944 37.5059 430.372 41.9344 435.834 41.9344Z" fill="#F529B1"/>
<path opacity="0.1" d="M16.5738 71.9563C25.7273 71.9563 33.1476 64.5344 33.1476 55.3791C33.1476 46.2238 25.7273 38.802 16.5738 38.802C7.42034 38.802 0 46.2238 0 55.3791C0 64.5344 7.42034 71.9563 16.5738 71.9563Z" fill="#F529B1"/>
<path opacity="0.1" d="M32.4617 153.813C41.6152 153.813 49.0355 146.391 49.0355 137.236C49.0355 128.081 41.6152 120.659 32.4617 120.659C23.3083 120.659 15.8879 128.081 15.8879 137.236C15.8879 146.391 23.3083 153.813 32.4617 153.813Z" fill="#F529B1"/>
<path opacity="0.1" d="M477.289 123.681C486.442 123.681 493.863 116.26 493.863 107.104C493.863 97.9489 486.442 90.5271 477.289 90.5271C468.135 90.5271 460.715 97.9489 460.715 107.104C460.715 116.26 468.135 123.681 477.289 123.681Z" fill="#F529B1"/>
<path d="M162.012 109.455C162.094 110.847 162.012 112.243 161.769 113.616C160.855 117.864 156.987 120.782 153.242 122.995C149.498 125.209 145.383 127.303 143.156 131.039C140.473 135.553 141.328 141.621 144.478 145.838C147.628 150.054 152.621 152.564 157.76 153.612C167.132 155.546 177.397 152.83 184.424 146.336C191.451 139.842 194.976 129.695 193.253 120.27C189.44 120.805 186.042 117.439 184.808 113.79C183.574 110.141 183.83 106.185 183.35 102.357C183.315 101.71 183.12 101.082 182.783 100.528C182.248 99.7874 181.301 99.4856 180.419 99.2432C176.011 98.0314 168.595 95.379 164.028 96.3942C159.913 97.3363 161.943 105.998 162.012 109.455Z" fill="#BE6F72"/>
<path opacity="0.1" d="M162.012 109.455C162.094 110.847 162.012 112.243 161.769 113.616C160.855 117.864 156.987 120.782 153.242 122.995C149.498 125.209 145.383 127.303 143.156 131.039C140.473 135.553 141.328 141.621 144.478 145.838C147.628 150.054 152.621 152.564 157.76 153.612C167.132 155.546 177.397 152.83 184.424 146.336C191.451 139.842 194.976 129.695 193.253 120.27C189.44 120.805 186.042 117.439 184.808 113.79C183.574 110.141 183.83 106.185 183.35 102.357C183.315 101.71 183.12 101.082 182.783 100.528C182.248 99.7874 181.301 99.4856 180.419 99.2432C176.011 98.0314 168.595 95.379 164.028 96.3942C159.913 97.3363 161.943 105.998 162.012 109.455Z" fill="black"/>
<path d="M156.685 311.906C152.316 314.193 147.769 316.123 143.088 317.677C140.524 318.487 137.917 319.153 135.279 319.671C135.092 316.155 135.284 312.628 135.85 309.153C136.207 307.155 136.733 305.175 136.87 303.149C137.064 300.225 136.439 297.304 135.064 294.716C140.157 294.021 144.995 292.887 150.111 293.221L150.435 293.244C151.044 293.259 151.646 293.372 152.218 293.577C153.006 293.958 153.674 294.546 154.152 295.279C154.416 295.638 154.659 296.012 154.879 296.399C156.324 298.896 156.873 301.777 156.987 304.745C157.041 307.136 156.94 309.528 156.685 311.906V311.906Z" fill="#BE6F72"/>
<path d="M183.345 300.647C181.717 301.028 180.12 301.463 178.554 301.95C174.33 303.315 170.219 305.008 166.259 307.013C166.002 305.767 165.876 304.498 165.884 303.226C168.218 301.617 170.851 300.493 173.628 299.922C176.404 299.351 179.267 299.344 182.047 299.902C182.418 299.947 182.771 300.089 183.071 300.313C183.179 300.409 183.272 300.522 183.345 300.647V300.647Z" fill="#BE6F72"/>
<path d="M191.204 277.563C190.894 280.553 190.436 283.553 189.376 286.366C188.228 289.384 186.363 292.311 186.6 295.535C186.705 296.934 187.181 298.452 187.25 299.838C185.933 300.079 184.633 300.35 183.35 300.652C181.722 301.033 180.125 301.467 178.558 301.955C174.334 303.32 170.224 305.013 166.264 307.017C165.482 307.402 164.709 307.79 163.937 308.183C163.616 308.142 163.301 308.092 162.981 308.033C160.695 307.616 158.29 306.592 156.996 304.763C156.7 304.342 156.467 303.88 156.306 303.391C155.56 301.164 156.338 298.388 154.788 296.623L154.715 296.687L154.66 296.724C153.811 297.493 152.878 298.165 151.88 298.727V298.727C149.607 300.013 147.09 300.807 144.491 301.058C141.891 301.308 139.268 301.009 136.792 300.181C135.811 299.847 134.863 299.421 133.962 298.909C131.868 297.716 129.847 295.708 130.012 293.312C130.103 291.977 130.867 290.696 130.661 289.375C130.51 288.428 129.888 287.642 129.422 286.805C126.363 281.317 130.012 274.261 128.091 268.298C128.046 268.156 127.995 268.014 127.945 267.877C127.803 267.488 127.643 267.113 127.488 266.738C127.095 265.865 126.656 265.005 126.308 264.109C126.019 263.355 125.79 262.58 125.622 261.79C125.191 259.497 125.037 257.16 125.165 254.83C125.165 248.689 126.263 242.401 127.826 236.483C128.105 235.432 128.416 233.945 128.827 232.327C129.229 230.62 129.77 228.95 130.446 227.333C131.36 225.229 132.604 223.551 134.305 223.153C136.865 222.554 140.779 223.821 143.376 224.132L153.64 225.357L174.164 227.813C177.708 228.238 181.429 228.728 184.351 230.722C184.543 230.854 184.73 230.991 184.918 231.138C185.69 231.746 186.381 232.45 186.975 233.232C187.186 233.502 187.387 233.785 187.579 234.073C188.245 235.093 188.811 236.174 189.27 237.302C191.817 243.421 191.877 250.248 191.895 256.874C191.895 263.789 191.918 270.699 191.204 277.563Z" fill="#41013C"/>
<path opacity="0.1" d="M151.857 298.754C151.24 296.376 149.937 292.933 149.745 291.995C149.101 288.85 148.634 285.672 148.346 282.474C147.839 276.776 146.924 268.755 148.936 263.336C150.824 264.342 152.484 267.191 153.357 269.135C156.521 276.182 152.959 284.834 155.931 291.963C156.153 292.39 156.291 292.856 156.338 293.335C156.286 293.943 156.068 294.526 155.707 295.018L154.706 296.683L151.857 298.754Z" fill="black"/>
<path d="M217.704 81.1982C221.069 75.7106 225.678 70.3145 225.39 63.8985C225.285 61.612 224.535 59.3758 223.963 57.1351C222.326 50.6499 222.218 43.8727 223.648 37.3386C229.302 36.43 235.089 37.7264 239.815 40.9604C241.31 41.9939 242.727 43.2789 243.386 44.9755C243.994 46.5394 243.893 48.2817 243.783 49.9555C243.532 53.8014 243.189 57.9033 240.821 60.9307C240.085 61.8773 239.179 62.6776 238.461 63.6333C237.414 65.0052 236.802 66.6789 236.203 68.3115L228.43 89.4616C224.507 100.121 220.255 111.27 211.614 118.646C211.404 118.825 205.213 110.031 204.701 109.148C202.63 105.531 203.535 104.004 206.041 100.976C210.983 94.9904 213.667 87.7696 217.704 81.1982Z" fill="#BE6F72"/>
<path d="M128.631 261.47C128.605 263.049 128.472 264.624 128.233 266.185C128.151 266.761 128.055 267.333 127.941 267.905C126.382 276.045 122.5 283.787 119.784 291.716C116.204 302.184 114.631 311.266 113.383 321.66C109.785 321.66 106.182 321.583 102.62 321.395H102.511C101.295 321.331 100.074 321.258 98.853 321.166C99.9549 311.472 97.9386 301.301 99.9092 291.597C100.705 287.692 102.063 283.901 102.881 280.014C103.133 278.87 103.324 277.712 103.453 276.548C103.567 275.441 103.626 274.293 104.125 273.296C104.17 273.2 104.222 273.107 104.28 273.017C104.718 272.327 105.261 271.71 105.889 271.188C111.46 266.302 118.274 263.053 125.577 261.8C126.615 261.658 127.625 261.539 128.631 261.47Z" fill="#FBBEBE"/>
<path opacity="0.1" d="M128.631 261.47C128.605 263.049 128.472 264.624 128.233 266.185C128.151 266.761 128.055 267.333 127.941 267.905C126.382 276.045 122.5 283.787 119.784 291.716C116.204 302.184 114.631 311.266 113.383 321.66C109.785 321.66 106.182 321.583 102.62 321.395H102.511C101.295 321.331 100.074 321.258 98.853 321.166C99.9549 311.472 97.9386 301.301 99.9092 291.597C100.705 287.692 102.063 283.901 102.881 280.014C103.133 278.87 103.324 277.712 103.453 276.548C103.567 275.441 103.626 274.293 104.125 273.296C104.17 273.2 104.222 273.107 104.28 273.017C104.718 272.327 105.261 271.71 105.889 271.188C111.46 266.302 118.274 263.053 125.577 261.8C126.615 261.658 127.625 261.539 128.631 261.47Z" fill="black"/>
<path d="M105.45 282.31C105.377 284.851 105.167 287.386 104.824 289.905C103.603 300.199 103.375 310.941 102.538 321.39C101.322 321.326 100.101 321.253 98.8804 321.162C93.3207 320.782 87.7794 320.197 82.3203 319.397C82.7409 317.043 83.1646 314.689 83.5913 312.336C84.1126 309.45 84.6338 306.537 84.4829 303.611C84.3412 300.844 83.6005 298.15 83.0107 295.439C81.7534 289.631 81.0493 283.366 78.9781 277.888C77.8979 274.815 76.1739 272.008 73.9214 269.656C82.4895 266.29 90.7238 266.098 99.9274 266.455C100.581 266.419 101.23 266.578 101.793 266.912C102.229 267.29 102.553 267.781 102.73 268.33C104.113 271.658 104.981 275.176 105.304 278.766C105.414 279.944 105.463 281.127 105.45 282.31V282.31Z" fill="#FBBEBE"/>
<path d="M174.466 107.095C184.314 107.095 192.297 99.1103 192.297 89.2605C192.297 79.4106 184.314 71.4258 174.466 71.4258C164.618 71.4258 156.635 79.4106 156.635 89.2605C156.635 99.1103 164.618 107.095 174.466 107.095Z" fill="#BE6F72"/>
<path d="M178.174 130.943C180.46 127.043 182.463 122.172 186.861 121.089C189.344 120.471 191.927 121.313 194.346 122.14C195.046 122.306 195.682 122.675 196.174 123.201C196.532 123.768 196.723 124.424 196.728 125.094C197.493 133.157 197.467 141.274 196.65 149.331C196.069 155.034 195.091 160.709 194.917 166.439C194.675 174.382 195.982 182.326 195.553 190.26C195.228 196.273 193.911 202.182 192.604 208.058L187.117 232.661C187.019 233.422 186.714 234.142 186.235 234.741C185.772 235.166 185.218 235.478 184.616 235.656C176.675 238.464 168.233 239.575 159.835 238.917C151.438 238.259 143.272 235.847 135.864 231.837C133.884 230.749 131.909 229.491 130.62 227.635C128.791 225.001 128.622 221.516 129.216 218.361C129.811 215.205 131.095 212.228 131.959 209.132C133.295 204.331 133.61 199.319 133.912 194.343C134.314 187.795 134.716 181.205 134.017 174.679C133.537 170.184 132.536 165.758 131.781 161.299C130.67 154.579 130.025 147.79 129.852 140.981C129.737 136.916 129.925 132.402 132.737 129.471C134.108 128.044 135.937 127.184 137.798 126.489C140.921 125.337 144.409 124.66 147.564 125.712C150.719 126.764 153.261 130.074 152.516 133.317C152.173 134.821 151.199 136.138 150.961 137.666C150.646 139.687 151.715 141.722 153.247 143.089C161.486 150.534 174.064 138.004 178.174 130.943Z" fill="#E3E8F4"/>
<path d="M178.828 112.72C181.33 111.798 184.049 111.639 186.642 112.263C188.292 112.656 190.075 113.351 191.598 112.615C192.151 112.349 192.608 111.915 193.166 111.668C194.675 111.005 196.632 111.819 197.967 110.854C198.808 110.246 199.082 109.139 199.366 108.133C200.739 103.331 203.552 99.0658 207.426 95.9141C206.946 99.4216 206.599 103.414 208.917 106.094C209.973 107.31 211.454 108.074 212.954 108.668C215.107 109.523 217.471 110.09 219.744 109.624C222.016 109.157 224.142 107.438 224.503 105.147C224.425 108.59 221.147 110.996 220.228 114.32C219.881 115.564 219.913 116.886 219.67 118.157C219.053 121.404 216.735 124.011 214.71 126.626C208.241 135.04 204.108 145.013 202.731 155.537C202.637 156.786 202.376 158.016 201.954 159.195C201.505 160.1 200.998 160.973 200.436 161.811C197.084 167.472 198.118 174.615 199.256 181.082C201.035 191.211 202.809 201.134 205.689 211.007C206.183 212.695 206.741 214.455 207.998 215.686C207.6 219.678 203.572 221.498 199.951 223.222C196.376 224.927 193.077 227.161 190.167 229.848C189.124 230.808 188.096 231.888 187.716 233.255C187.359 234.54 187.615 235.953 187.158 237.201C186.701 238.45 184.872 239.346 184.068 238.294C183.062 234.531 184.781 230.593 184.703 226.697C184.648 224.068 183.789 221.512 183.665 218.882C183.546 215.905 184.424 212.983 185.357 210.157C187.954 202.287 191.09 194.49 191.991 186.254C192.892 178.018 191.209 169.023 185.366 163.146C178.43 156.14 174.58 146.642 167.146 140.208C165.967 139.188 164.632 137.922 164.828 136.376C164.964 135.695 165.264 135.058 165.702 134.519C168.253 130.916 171.645 127.975 174.388 124.527C177.132 121.079 179.326 117.11 178.828 112.72Z" fill="#41013C"/>
<path d="M154.417 120.096C153.96 120.553 153.645 121.185 153.114 121.578C152.495 121.96 151.789 122.179 151.062 122.213C148.371 122.622 145.657 122.865 142.937 122.941C140.651 122.941 138.278 122.739 136.079 123.366C133.011 124.235 130.56 126.658 129.024 129.448C127.488 132.237 126.761 135.393 126.171 138.534C124.871 145.456 124.175 152.478 124.091 159.52C127.859 156.514 131.218 153.027 134.081 149.148C136.275 146.171 138.264 142.879 141.396 140.89C142.836 139.975 144.455 139.371 145.904 138.48C148.926 136.618 151.02 133.609 153.032 130.705C154.513 128.552 158.798 124.344 159.136 121.765C159.424 119.3 156.018 118.098 154.417 120.096Z" fill="#41013C"/>
<path d="M170.347 77.0504C170.911 77.3896 171.452 77.767 171.965 78.1799C175.07 80.3475 179.226 79.9451 182.979 79.4512C184.132 79.3049 185.316 79.1402 186.303 78.5366C187.89 77.558 188.635 75.5459 188.48 73.6847C188.324 71.8235 187.387 70.1086 186.244 68.6544C184.73 66.73 182.841 65.133 180.691 63.9602C178.542 62.7874 176.177 62.0632 173.739 61.8315C172.477 61.666 171.194 61.8023 169.995 62.2293C168.518 62.8375 167.407 64.0905 166.044 64.9274C162.026 67.3968 155.835 66.2993 153.243 70.2412C151.345 73.1496 152.698 77.1007 151.802 80.4436C151.135 82.9404 149.21 85.2132 149.58 87.7604C149.786 89.1323 150.646 90.3304 151.331 91.5559C152.906 94.3735 153.635 97.5857 153.43 100.807C155.19 102.051 157.645 100.117 158.135 98.0222C158.624 95.9277 158.062 93.6961 158.478 91.5834C159.214 87.8747 162.487 85.1537 163.964 81.7514C165.025 79.314 166.753 75.1983 170.347 77.0504Z" fill="#41013C"/>
<path d="M127.113 117.645C126.976 118.477 126.889 119.396 127.351 120.101C128.265 121.473 130.359 120.979 132.005 121.185C134.57 121.5 136.463 123.928 136.961 126.48C137.46 129.032 136.865 131.629 136.216 134.135C134.747 139.815 132.997 145.414 130.967 150.932C125.508 150.287 119.761 148.188 116.862 143.528C114.229 139.289 114.499 133.888 112.825 129.187C111.65 125.876 109.542 122.995 107.458 120.169C110.809 120.59 113.205 116.758 113.401 113.383C113.598 110.008 112.537 106.583 113.259 103.286C113.429 102.504 126.637 104.969 127.922 105.86C131.635 108.435 127.698 114.069 127.113 117.645Z" fill="#FBBEBE"/>
<path opacity="0.1" d="M127.113 117.645C126.976 118.477 126.889 119.396 127.351 120.101C128.265 121.473 130.359 120.979 132.005 121.185C134.57 121.5 136.463 123.928 136.961 126.48C137.46 129.032 136.865 131.629 136.216 134.135C134.747 139.815 132.997 145.414 130.967 150.932C125.508 150.287 119.761 148.188 116.862 143.528C114.229 139.289 114.499 133.888 112.825 129.187C111.65 125.876 109.542 122.995 107.458 120.169C110.809 120.59 113.205 116.758 113.401 113.383C113.598 110.008 112.537 106.583 113.259 103.286C113.429 102.504 126.637 104.969 127.922 105.86C131.635 108.435 127.698 114.069 127.113 117.645Z" fill="black"/>
<path d="M124.173 112.125C134.021 112.125 142.004 104.141 142.004 94.2908C142.004 84.4409 134.021 76.4561 124.173 76.4561C114.325 76.4561 106.342 84.4409 106.342 94.2908C106.342 104.141 114.325 112.125 124.173 112.125Z" fill="#FBBEBE"/>
<path d="M118.682 115.084C119.331 114.069 118.225 112.651 118.732 111.558C119.034 110.9 119.798 110.616 120.388 110.186C121.127 109.584 121.717 108.819 122.111 107.95C124.887 102.615 125.728 96.4814 124.489 90.5957C124.068 88.6202 123.693 85.9953 125.499 85.1081C126 84.8846 126.548 84.7903 127.095 84.8337C130.35 84.9389 133.496 87.1202 136.655 86.3474C137.733 86.0541 138.696 85.4385 139.415 84.5829C140.134 83.7272 140.575 82.6724 140.678 81.5595C140.884 78.6053 138.671 76.0719 136.495 74.0826C132.577 70.4791 126.606 69.6788 121.284 69.5919L111.385 69.4273C108.217 69.3724 104.664 69.473 102.46 71.7458C99.2873 75.0155 100.883 80.3659 100.426 84.8977C100.037 88.5147 98.2281 91.8292 95.3965 94.1123C93.3436 95.7495 90.5181 97.3134 90.5547 99.9292C90.5547 100.844 90.9479 101.676 91.1993 102.54C92.2098 105.961 91.2451 109.743 89.3065 112.738C87.3679 115.733 84.5332 118.038 81.5934 120.055C80.0206 121.13 78.3929 122.163 77.1493 123.622C75.7859 125.307 74.9763 127.372 74.8313 129.535C74.6356 131.187 74.9754 132.859 75.8006 134.304C77.7346 137.396 82.3752 137.848 85.5528 136.056C88.7304 134.263 90.669 130.87 91.9537 127.459C92.7218 125.433 93.5037 123.114 95.4697 122.204C97.9569 121.047 100.865 122.876 102.483 125.094C104.102 127.312 105.098 130.02 107.17 131.821C110.416 134.647 115.939 134.19 118.682 130.87C120.644 128.488 121.078 125.19 120.968 122.104C120.914 119.59 120.118 117.148 118.682 115.084Z" fill="#41013C"/>
<path d="M125.083 138.329C123.048 138.763 120.922 137.803 119.409 136.367C117.896 134.931 116.876 133.079 115.815 131.286C113.126 126.764 110.043 122.489 106.603 118.509C103.603 115.047 99.4291 111.531 94.9758 112.601C93.4848 113.031 92.1014 113.771 90.9158 114.773C86.9894 117.883 83.916 121.938 81.9833 126.559C80.0506 131.18 79.3218 136.216 79.8651 141.196C80.2126 144.109 81.0036 146.958 81.3327 149.885C81.5545 152.297 81.6186 154.721 81.5248 157.142C81.4013 164.514 81.1499 172.311 77.1767 178.521C71.0181 188.124 67.7217 199.593 63.1999 210.074C60.7584 215.74 59.2953 221.772 57.8597 227.772C57.0093 231.333 56.1604 234.892 55.313 238.45L49.7808 261.726C49.2093 264.127 48.6378 266.642 49.2413 269.043C50.1557 272.628 53.5253 275.134 57.0778 276.154C60.6304 277.174 64.3932 277 68.0829 277.032C75.1421 277.101 82.2563 277.979 88.8813 280.43C90.7741 281.13 92.6624 281.967 94.6787 282.131C96.695 282.296 98.7021 281.77 100.59 281.038C105.743 279.044 110.16 275.551 114.906 272.729C117.87 270.942 120.992 269.431 124.233 268.216C125.86 267.607 127.607 267.031 128.727 265.7C129.573 264.699 129.952 263.391 130.231 262.111C131.777 254.903 130.739 247.436 130.231 240.082C129.724 232.729 125.33 224.959 128.965 218.548C129.696 217.254 130.57 216.01 130.944 214.574C131.438 212.699 131.022 210.683 131.438 208.789C131.745 207.39 132.481 206.132 132.984 204.793C133.861 202.433 133.98 199.863 133.971 197.343C133.951 191.811 133.368 186.295 132.234 180.88C130.794 174.021 135.558 167.239 138.287 160.759C139.266 158.441 140.651 156.25 141.058 153.767C141.424 151.526 140.953 149.244 140.601 146.999C140.075 143.519 139.861 139.999 139.961 136.481C140.047 133.326 140.381 130.111 139.627 127.042C138.872 123.974 136.719 120.997 133.624 120.366C133.277 120.264 132.911 120.24 132.554 120.297C132.197 120.353 131.856 120.487 131.557 120.691C131.2 121.041 130.948 121.485 130.83 121.971C129.824 125.053 130.021 128.373 129.459 131.574C128.896 134.775 128.238 137.652 125.083 138.329Z" fill="#F96CAB"/>
<path d="M81.9365 157.97C82.1239 156.703 81.5341 155.02 80.254 155.066C79.0744 155.112 78.5486 156.589 78.5531 157.773C78.5577 158.957 78.7177 160.316 77.881 161.148C77.1404 161.884 75.915 161.861 75.0555 162.46C74.7521 162.677 74.5053 162.963 74.3358 163.295C74.1663 163.627 74.0791 163.995 74.0816 164.367C74.0816 165.003 74.3697 165.611 74.388 166.247C74.4063 166.883 73.9811 167.619 73.3501 167.578C73.026 168.122 72.8911 168.757 72.9664 169.386C73.0416 170.015 73.3229 170.601 73.7662 171.053C74.0954 171.373 74.5251 171.648 74.6349 172.096C74.6696 172.41 74.6448 172.728 74.5617 173.033C74.3697 174.291 75.2384 175.699 76.5048 175.836C75.7962 176.344 75.9379 177.533 76.5871 178.123C77.2364 178.713 78.1691 178.827 79.0424 178.827C81.0243 178.816 82.9843 178.41 84.8078 177.634C85.4321 177.427 85.9843 177.047 86.3988 176.536C86.5911 176.273 86.6834 175.95 86.6591 175.625C86.6348 175.299 86.4956 174.994 86.2663 174.762C87.1532 174.908 88.2185 174.99 88.7992 174.304C89.6084 173.344 88.7397 171.922 87.8848 170.994C88.2394 170.941 88.5706 170.785 88.8374 170.546C89.1042 170.306 89.2948 169.994 89.3854 169.647C89.476 169.3 89.4627 168.934 89.3471 168.594C89.2315 168.255 89.0187 167.957 88.7352 167.738C88.4426 167.523 88.0448 167.335 88.0036 166.974C87.9625 166.613 88.2688 166.379 88.3968 166.059C88.6895 165.341 88.0219 164.61 87.3773 164.175C85.8502 163.16 83.6007 163.178 82.2428 162.154C80.8849 161.13 81.7399 159.342 81.9365 157.97Z" fill="#BE6F72"/>
<path d="M176.258 88.579C175.151 88.6906 174.037 88.7166 172.925 88.6568C172.736 88.6361 172.546 88.6906 172.396 88.8086C172.247 88.9267 172.149 89.0988 172.125 89.2879L169.999 105.238C169.836 106.396 169.362 107.488 168.628 108.398C168.022 109.123 167.573 109.964 167.306 110.869C167.039 111.775 166.962 112.725 167.078 113.662V140.757C167.078 140.757 166.941 144.37 169.716 144.37C173.037 144.787 176.398 144.787 179.719 144.37C179.719 144.37 181.942 143.949 181.942 140.615V113.936C182.111 113.006 182.076 112.049 181.839 111.133C181.602 110.217 181.169 109.364 180.57 108.632C179.86 107.718 179.402 106.635 179.239 105.49L177.031 89.2055C177.006 89.0225 176.912 88.8558 176.769 88.7394C176.625 88.6231 176.443 88.5657 176.258 88.579V88.579Z" fill="#41013C"/>
<path opacity="0.1" d="M176.258 88.579C175.151 88.6906 174.037 88.7166 172.925 88.6568C172.736 88.6361 172.546 88.6906 172.396 88.8086C172.247 88.9267 172.149 89.0988 172.125 89.2879L169.999 105.238C169.836 106.396 169.362 107.488 168.628 108.398C168.022 109.123 167.573 109.964 167.306 110.869C167.039 111.775 166.962 112.725 167.078 113.662V140.757C167.078 140.757 166.941 144.37 169.716 144.37C173.037 144.787 176.398 144.787 179.719 144.37C179.719 144.37 181.942 143.949 181.942 140.615V113.936C182.111 113.006 182.076 112.049 181.839 111.133C181.602 110.217 181.169 109.364 180.57 108.632C179.86 107.718 179.402 106.635 179.239 105.49L177.031 89.2055C177.006 89.0225 176.912 88.8558 176.769 88.7394C176.625 88.6231 176.443 88.5657 176.258 88.579V88.579Z" fill="black"/>
<path d="M176.272 114.147H172.902C170.112 114.147 167.85 116.409 167.85 119.2V131.881C167.85 134.672 170.112 136.934 172.902 136.934H176.272C179.062 136.934 181.324 134.672 181.324 131.881V119.2C181.324 116.409 179.062 114.147 176.272 114.147Z" fill="#F529B1"/>
<path d="M221.554 19.6547C220.577 20.1918 219.559 20.6506 218.509 21.0266C218.327 21.0808 218.173 21.2037 218.08 21.3693C217.987 21.5348 217.962 21.7301 218.011 21.9137L222.19 37.4619C222.488 38.5904 222.476 39.7789 222.153 40.9008C221.871 41.8021 221.779 42.7519 221.881 43.6907C221.983 44.6294 222.278 45.5369 222.747 46.3564L233.181 71.3616C233.181 71.3616 234.443 74.7456 237.008 73.6755C240.237 72.7796 243.34 71.4797 246.243 69.8068C246.243 69.8068 248.132 68.5629 246.851 65.4898L236.578 40.8688C236.376 39.9444 235.975 39.0748 235.405 38.3201C234.834 37.5653 234.106 36.9433 233.272 36.497C232.267 35.9279 231.427 35.1068 230.835 34.1145L222.528 19.9382C222.434 19.7742 222.28 19.6531 222.098 19.6002C221.916 19.5473 221.721 19.5669 221.554 19.6547Z" fill="#41013C"/>
<path d="M231.419 43.2498L228.309 44.5477C225.734 45.6224 224.518 48.5815 225.592 51.1571L230.475 62.86C231.549 65.4355 234.508 66.6522 237.083 65.5774L240.193 64.2795C242.768 63.2048 243.984 60.2457 242.91 57.6701L238.027 45.9672C236.953 43.3917 233.994 42.175 231.419 43.2498Z" fill="#F529B1"/>
<path d="M93.2476 115.555C88.3327 117.581 86.3895 123.883 87.5417 129.068C88.6939 134.254 92.1641 138.576 95.5474 142.687L105.03 154.256C107.65 157.458 110.516 160.828 114.512 161.944C120.356 163.576 126.199 159.854 131.251 156.488C146.331 146.437 162.451 138.041 179.331 131.446C180.981 130.806 182.673 130.157 184.031 129.014C186.847 126.645 187.638 122.277 186.07 118.953C184.502 115.628 180.849 113.465 177.168 113.438C173.488 113.41 169.908 115.359 167.695 118.304C166.639 119.707 165.866 121.313 164.846 122.739C162.268 126.325 158.244 128.542 154.308 130.545C144.816 135.389 135.045 139.665 125.046 143.35C123.218 144.018 121.156 144.653 119.432 143.771C118.376 143.226 117.663 142.197 117.022 141.191C114.106 136.599 111.786 131.654 110.119 126.476C108.87 122.588 107.86 118.354 104.861 115.592C100.609 111.677 92.9093 112.615 89.7226 117.421C89.7226 117.421 85.9872 122.886 88.2732 125.172C90.5593 127.459 93.2476 115.555 93.2476 115.555Z" fill="#FBBEBE"/>
<path d="M349.668 96.6321C350.336 98.411 350.354 100.359 350.258 102.257C350.139 104.571 349.559 107.287 347.41 108.17C346.011 108.732 344.282 108.307 343.039 109.158C341.53 110.182 341.603 112.386 341.836 114.188C342.481 119.14 343.208 124.276 345.906 128.465C347.355 130.71 349.316 132.58 351.305 134.369C355.269 137.945 359.617 141.438 364.825 142.632C365.673 142.871 366.566 142.909 367.431 142.742C368.284 142.478 369.059 142.007 369.685 141.37C372.703 138.599 374.257 134.643 376.269 131.058C377.691 128.492 379.387 126.027 380.187 123.201C380.846 120.732 380.802 118.128 380.061 115.682C379.319 113.236 377.909 111.046 375.99 109.359C375.098 108.595 374.111 107.955 373.247 107.164C370.988 105.115 369.671 102.175 369.132 99.1747C368.592 96.1748 368.674 93.088 368.935 90.0287C364.363 89.6766 359.823 90.2299 355.361 91.1216C353.376 91.5195 350.583 91.7024 348.786 92.649C346.765 93.7237 349.115 95.1002 349.668 96.6321Z" fill="#FBBEBE"/>
<path opacity="0.1" d="M349.668 96.6321C350.336 98.411 350.354 100.359 350.258 102.257C350.139 104.571 349.559 107.287 347.41 108.17C346.011 108.732 344.282 108.307 343.039 109.158C341.53 110.182 341.603 112.386 341.836 114.188C342.481 119.14 343.208 124.276 345.906 128.465C347.355 130.71 349.316 132.58 351.305 134.369C355.269 137.945 359.617 141.438 364.825 142.632C365.673 142.871 366.566 142.909 367.431 142.742C368.284 142.478 369.059 142.007 369.685 141.37C372.703 138.599 374.257 134.643 376.269 131.058C377.691 128.492 379.387 126.027 380.187 123.201C380.846 120.732 380.802 118.128 380.061 115.682C379.319 113.236 377.909 111.046 375.99 109.359C375.098 108.595 374.111 107.955 373.247 107.164C370.988 105.115 369.671 102.175 369.132 99.1747C368.592 96.1748 368.674 93.088 368.935 90.0287C364.363 89.6766 359.823 90.2299 355.361 91.1216C353.376 91.5195 350.583 91.7024 348.786 92.649C346.765 93.7237 349.115 95.1002 349.668 96.6321Z" fill="black"/>
<path d="M324.156 110.09C316.731 107.543 313.183 97.5923 305.411 96.4765C304.185 96.2982 302.928 96.3668 301.725 96.0833C297.249 95.0223 295.325 89.8457 294.031 85.4327C289.669 70.7214 283.972 56.3256 275.88 43.2834C272.464 37.7958 267.065 33.2868 264.6 27.2779C264.033 25.906 263.745 24.342 262.726 23.2582C261.706 22.1744 259.525 22.0189 258.972 23.4C258.818 23.8892 258.783 24.4083 258.871 24.9137L259.406 30.607L250.107 29.7702C249.246 29.6234 248.363 29.6862 247.533 29.9531C246.635 30.4022 245.92 31.1467 245.507 32.0613C242.362 37.9741 245.713 45.7208 251.263 49.4615C257.747 53.8287 267.005 54.4918 271.312 61.0083C273.872 64.8862 273.923 69.8754 275.61 74.206C276.414 76.2776 277.589 78.18 278.527 80.1875C280.314 84.0151 281.229 88.1765 282.614 92.1642C284.598 97.8667 287.538 103.181 290.469 108.462C292.728 112.541 295.041 116.694 298.516 119.813C300.802 121.861 303.49 123.379 306.179 124.843C312.79 128.456 320.585 131.931 327.59 129.16C327.992 122.913 326.424 115.948 324.156 110.09Z" fill="#FBBEBE"/>
<path d="M346.701 306.949C346.139 312.917 342.517 318.322 341.672 324.066C336.094 323.192 330.603 322.067 325.29 320.787C324.636 320.631 323.987 320.471 323.333 320.33C326.341 312.098 323.722 302.879 324.517 294.113C324.595 293.271 324.705 292.43 324.851 291.597C331.741 289.247 337.964 286.11 345.188 287.024C345.329 288.488 345.476 289.956 345.617 291.419C345.907 294.343 346.193 297.263 346.477 300.181C346.767 302.425 346.842 304.691 346.701 306.949V306.949Z" fill="#FBBEBE"/>
<path d="M394.351 321.875C391.645 322.698 388.865 323.416 385.962 324.006C385.477 324.107 384.988 324.203 384.499 324.294C381.527 324.852 378.518 325.259 375.478 325.538C375.167 319.182 370.906 313.337 370.284 306.812C370.157 305.19 370.174 303.56 370.334 301.941C370.389 301.301 370.453 300.661 370.513 300.021L371.802 286.864C372.828 286.735 373.863 286.685 374.897 286.713C380.841 286.855 386.25 289.43 392.139 291.437C392.577 294.213 392.731 297.026 392.596 299.833C392.372 306.976 391.224 314.206 393.876 320.759C394.027 321.13 394.191 321.5 394.351 321.875Z" fill="#FBBEBE"/>
<path d="M317.175 221.571C317.975 227.808 314.788 233.781 313.407 239.913C312.493 243.969 312.369 248.145 312.246 252.306L311.523 277.233C311.45 279.726 311.386 282.264 312.145 284.655C313.672 289.448 318.377 292.686 323.274 293.838C328.17 294.99 333.291 294.405 338.279 293.747C340.725 293.422 343.277 293.042 345.302 291.629C348.086 289.686 349.303 286.224 350.354 282.995L353.321 273.881C356.737 281.573 355.292 289.983 357.34 298.146C357.472 298.901 357.786 299.612 358.255 300.217C359.119 301.178 360.541 301.329 361.835 301.42C370.796 302.051 379.881 302.678 388.696 300.963C391.119 300.505 393.647 299.765 395.321 297.945C397.268 295.827 397.607 292.713 397.584 289.837C397.46 279.954 393.889 270.42 393.094 260.569C392.751 256.349 392.92 252.105 392.769 247.87C392.651 244.685 392.353 241.51 391.878 238.358C391.727 236.915 391.331 235.508 390.707 234.197C389.336 231.636 386.487 230.246 383.79 229.167C362.831 220.652 339.779 220.734 317.175 221.571Z" fill="#F96CAB"/>
<path d="M355.978 98.8637C366.836 98.8637 375.638 90.0599 375.638 79.1998C375.638 68.3397 366.836 59.5359 355.978 59.5359C345.12 59.5359 336.318 68.3397 336.318 79.1998C336.318 90.0599 345.12 98.8637 355.978 98.8637Z" fill="#FBBEBE"/>
<path d="M373.114 113.836C371.655 117.037 369.36 120.238 365.945 121.052C362.804 121.806 359.475 120.293 357.162 118.038C354.848 115.784 353.335 112.857 351.73 110.054C350.56 108.005 349.257 105.938 347.277 104.649C344.57 102.892 341.077 102.938 337.886 103.455C334.695 103.972 331.526 104.895 328.285 104.685C324.247 104.415 320.133 102.399 316.324 103.743C317.559 109.267 317.115 115.34 316.973 121.002C316.997 121.876 316.874 122.748 316.608 123.581C316.275 124.357 315.826 125.079 315.277 125.721L311.619 130.436C315.542 133.372 318.935 137.204 320.306 141.909C321.079 144.589 320.841 147.434 320.814 150.223C320.727 158.413 322.506 166.571 321.943 174.743C321.285 184.315 317.463 193.36 315.492 202.748C313.804 210.808 313.486 219.094 314.55 227.26C335.042 234.352 356.156 237.983 377.819 239.172C381.645 239.383 385.779 239.415 388.92 237.215C391.53 235.386 392.993 232.253 393.492 229.098C393.99 225.943 393.647 222.732 393.3 219.559C392.358 210.977 391.417 202.395 390.479 193.813C389.944 188.929 389.409 184.017 389.756 179.12C390.017 175.461 390.767 171.872 391.512 168.291L396.084 146.313C396.738 143.19 397.396 140.044 398.69 137.131C399.751 134.753 401.218 132.558 402.389 130.244C403.784 127.469 404.746 124.497 405.242 121.431C405.44 120.542 405.428 119.618 405.205 118.733C404.716 117.233 403.221 116.333 401.827 115.596C393.323 111.127 384.21 107.929 374.778 106.107C374.138 108.801 374.261 111.325 373.114 113.836Z" fill="#E3E8F4"/>
<path d="M371.217 100.665C373.503 96.2845 377.777 93.2114 380.26 88.9311C381.632 86.5044 382.399 83.7827 382.496 80.9966C382.593 78.2104 382.018 75.4419 380.818 72.9256C379.945 71.1421 378.76 69.505 378.075 67.6392C377.311 65.5173 377.238 63.1805 376.356 61.1044C375.144 58.26 372.52 56.2113 369.662 55.0314C366.804 53.8516 363.718 53.4263 360.641 53.0147L350.253 51.6154C348.749 51.4142 347.19 51.213 345.727 51.6154C344.264 52.0178 342.902 53.2114 342.783 54.7296C342.641 56.5268 344.218 58.2005 343.853 59.9657C343.72 60.5876 343.354 61.2187 343.565 61.8223C343.752 62.2256 344.076 62.5495 344.479 62.7369C346.943 64.1088 349.888 64.2323 352.558 65.1286C355.228 66.0249 357.907 68.2748 357.637 71.0735C357.491 72.578 356.522 74.142 357.18 75.491C357.811 76.7395 359.466 76.9681 360.788 77.3568C365.062 78.5961 368.062 83.2331 367.44 87.6461C367.248 89.018 366.754 90.3304 366.654 91.7069C366.32 96.5268 367.079 97.9033 371.015 100.707L371.217 100.665Z" fill="#41013C"/>
<path d="M397.922 121.509C397.943 122.422 397.777 123.329 397.433 124.175C396.006 127.216 391.64 127.024 388.746 128.748C385.143 130.898 384.348 135.695 384.018 139.874C383.644 144.607 383.388 149.409 384.357 154.051C385.326 158.692 387.658 163.22 391.553 165.941C396.295 169.238 402.741 169.352 408.155 167.344C413.568 165.337 418.09 161.454 422.012 157.211C425.734 153.186 429.067 148.7 431.065 143.592C431.417 142.678 431.728 141.708 431.445 140.794C431.02 139.422 429.524 138.8 428.308 138.05C425.469 136.335 423.576 133.344 422.593 130.184C421.61 127.024 421.446 123.663 421.414 120.348C421.377 116.904 421.368 113.141 419.173 110.484C416.979 107.827 413.175 107.081 409.709 107.109C406.874 107.109 399.029 107.379 397.095 109.853C395.508 111.911 398.036 118.564 397.922 121.509Z" fill="#BE6F72"/>
<path opacity="0.1" d="M397.922 121.509C397.943 122.422 397.777 123.329 397.433 124.175C396.006 127.216 391.64 127.024 388.746 128.748C385.143 130.898 384.348 135.695 384.018 139.874C383.644 144.607 383.388 149.409 384.357 154.051C385.326 158.692 387.658 163.22 391.553 165.941C396.295 169.238 402.741 169.352 408.155 167.344C413.568 165.337 418.09 161.454 422.012 157.211C425.734 153.186 429.067 148.7 431.065 143.592C431.417 142.678 431.728 141.708 431.445 140.794C431.02 139.422 429.524 138.8 428.308 138.05C425.469 136.335 423.576 133.344 422.593 130.184C421.61 127.024 421.446 123.663 421.414 120.348C421.377 116.904 421.368 113.141 419.173 110.484C416.979 107.827 413.175 107.081 409.709 107.109C406.874 107.109 399.029 107.379 397.095 109.853C395.508 111.911 398.036 118.564 397.922 121.509Z" fill="black"/>
<path d="M373.544 244.148C373.685 244.845 374.014 245.49 374.495 246.014C374.946 246.37 375.473 246.619 376.036 246.741C391.041 251.145 407.071 249.389 422.607 247.591C420.481 241.116 418.341 234.567 417.751 227.777C417.262 222.175 417.811 216.344 415.826 211.09C415.241 209.535 381.133 216.692 377.768 217.272C376.045 217.57 374.061 217.469 372.84 218.836C371.368 220.492 371.244 224.434 371.089 226.496C370.65 232.455 371.88 238.454 373.544 244.148Z" fill="#BE6F72"/>
<path d="M407.711 316.74C404.968 318.011 402.138 319.195 399.207 320.256C397.622 320.833 396.003 321.372 394.351 321.875C391.645 322.698 388.865 323.416 385.962 324.006C384.306 319.808 382.65 315.609 380.992 311.408C379.771 308.316 378.55 305.211 377.531 302.051C376.821 299.894 376.238 297.696 375.784 295.471C374.287 287.906 374.677 280.089 376.918 272.711C383.255 273.904 389.45 274.682 395.691 275.587C399.024 276.045 402.366 276.584 405.75 277.22C406.015 279.424 406.256 281.628 406.472 283.832C406.801 287.235 407.071 290.637 407.281 294.039C407.748 301.6 407.891 309.167 407.711 316.74Z" fill="#BE6F72"/>
<path opacity="0.1" d="M407.711 316.74C404.968 318.011 402.138 319.195 399.207 320.256C397.622 320.833 396.003 321.372 394.351 321.875C391.645 322.698 388.865 323.416 385.962 324.006C384.306 319.808 382.65 315.609 380.992 311.408C379.771 308.316 378.55 305.211 377.531 302.051C376.821 299.894 376.238 297.696 375.784 295.471C374.287 287.906 374.677 280.089 376.918 272.711C383.255 273.904 389.45 274.682 395.691 275.587C399.024 276.045 402.366 276.584 405.75 277.22C406.015 279.424 406.256 281.628 406.472 283.832C406.801 287.235 407.071 290.637 407.281 294.039C407.748 301.6 407.891 309.167 407.711 316.74Z" fill="black"/>
<path d="M442.87 296.925C442.907 299.559 442.157 302.248 441.462 304.831C441.412 305.014 441.366 305.193 441.32 305.376C439.667 304.861 438.241 303.791 437.283 302.348C436.788 301.566 436.423 300.709 436.2 299.81C434.13 301.219 432.042 302.614 429.936 303.995C423.046 308.522 415.762 313.017 407.711 316.739C404.968 318.011 402.138 319.195 399.207 320.256C398.597 318.122 398.018 315.974 397.469 313.813C396.87 311.587 396.4 309.329 396.061 307.049C395.391 301.871 395.911 296.609 397.579 291.661L397.785 291.067C398.562 288.866 399.565 286.753 400.78 284.761C401.918 282.931 404.172 283.238 406.472 283.846C407.514 284.116 408.57 284.44 409.531 284.642C415.506 285.895 421.711 284.6 427.819 284.943C430.73 285.089 433.582 285.815 436.209 287.079C439.149 288.556 441.517 290.815 442.445 293.939C442.577 294.388 442.678 294.847 442.747 295.31C442.824 295.845 442.865 296.384 442.87 296.925Z" fill="#BE6F72"/>
<path d="M332.875 86.3153C323.434 77.1693 312.703 69.4181 301.726 62.1699C298.869 60.3781 296.121 58.419 293.496 56.3027C290.753 54.0162 288.362 51.3319 285.449 49.274C282.537 47.2162 278.934 45.8031 275.436 46.4799C271.939 47.1567 268.83 50.5042 269.342 54.0071C269.799 57.0893 272.57 59.202 275.13 60.9718C279.976 64.3238 284.846 67.6849 290.117 70.3144C291.949 71.1447 293.725 72.0917 295.435 73.1497C298.717 75.363 301.109 78.6373 303.591 81.7149C312.962 93.3565 324.439 103.13 337.425 110.525C337.58 110.616 342.989 98.9414 342.76 97.4277C342.257 93.9477 335.363 88.7299 332.875 86.3153Z" fill="#BE6F72"/>
<path d="M413.627 234.097C406.339 234.554 399.349 237.014 392.221 238.583C385.093 240.151 377.348 240.759 370.732 237.668L374.755 265.147C374.979 266.675 375.213 268.239 374.879 269.743C374.572 271.179 373.777 272.533 373.846 274.001C373.951 276.324 376.132 277.956 378.184 279.031C384.148 282.18 390.83 283.72 397.57 283.499C397.072 285.511 396.45 287.5 395.947 289.512C399.307 293.12 404.803 293.363 409.599 294.506C413.257 295.37 416.686 296.87 420.27 297.927C424.605 299.206 429.106 299.833 433.626 299.788C436.675 299.756 439.908 299.33 442.276 297.428C445.188 295.082 446.094 291.094 446.725 287.409C447.077 285.351 447.401 283.266 447.182 281.189C446.944 278.802 446.02 276.543 445.106 274.33L438.842 259.125C437.704 256.381 436.556 253.596 435.185 250.948C430.704 242.383 423.27 233.498 413.627 234.097Z" fill="#41013C"/>
<path d="M419.205 139.152C419.746 137.729 420.746 136.527 422.045 135.735C423.345 134.942 424.871 134.605 426.383 134.776C428.212 135.032 429.844 136.033 431.413 137.012L440.145 142.463C441.592 143.324 442.981 144.28 444.301 145.325C450.323 150.319 452.645 158.528 453.308 166.325C453.971 174.122 453.308 182.051 454.858 189.72C451.173 192.775 447.086 195.359 443.401 198.409C441.471 200.005 439.519 201.61 438.056 203.663C436.894 205.277 436.067 207.125 434.855 208.693C432.871 211.173 429.993 212.772 426.84 213.148C428.838 214.309 429.959 216.564 430.498 218.809C431.038 221.054 431.184 223.382 431.783 225.627C432.606 228.678 434.311 231.462 434.874 234.572C435.267 236.717 435.093 238.916 435.235 241.093C435.948 252.357 444.786 262.202 444.214 273.47C440.043 271.954 436.096 269.878 432.482 267.301C430.855 266.135 429.282 264.873 427.741 263.615L416.096 254.172C410.431 249.599 404.712 244.925 400.208 239.182C397.383 235.578 395.078 231.591 392.244 227.996C389.409 224.402 385.92 221.137 381.591 219.628C380.955 220.583 379.826 221.246 379.19 222.202C379.078 222.353 378.989 222.519 378.925 222.696C378.848 223.122 378.9 223.562 379.076 223.958C379.587 225.808 379.893 227.708 379.99 229.624L380.278 233.063C380.386 233.974 380.386 234.895 380.278 235.807C379.844 238.747 377.119 241.029 374.179 241.486C373.754 241.578 373.313 241.564 372.894 241.445C372.076 241.171 371.623 240.307 371.377 239.483C370.22 235.578 371.994 231.458 372.135 227.392C372.155 226.361 372.12 225.329 372.03 224.301L371.756 220.245C369.1 219.692 367.573 216.838 366.868 214.218C364.966 207.143 363.051 199.822 364.153 192.578C364.445 190.639 364.957 188.673 364.61 186.734C364.153 184.141 362.287 182.037 361.304 179.596C358.104 171.634 364.902 162.991 364.272 154.444C364.006 150.854 361.729 147.735 360.358 144.406C359.648 142.466 358.728 140.609 357.615 138.868C356.216 136.87 354.327 135.269 352.494 133.66C346.832 128.691 341.461 123.398 336.409 117.81C333.815 117.541 331.381 116.425 329.483 114.636C328.275 113.493 327.283 111.984 327.251 110.324C327.219 108.664 328.445 106.921 330.104 106.835C331.074 106.784 331.979 107.264 332.925 107.475C335.888 108.124 338.869 105.943 340.19 103.204C341.512 100.464 341.512 97.3135 341.489 94.2771C342.937 94.02 344.426 94.1403 345.814 94.6265C347.202 95.1127 348.441 95.9484 349.412 97.0529C351.456 99.2753 352.786 102.047 354.396 104.598C355.051 105.732 355.892 106.748 356.883 107.603C359.082 109.35 362.251 109.679 364.171 111.718C365.145 112.761 365.684 114.142 366.576 115.258C369.081 118.4 373.667 118.784 377.092 120.851C380.516 122.918 382.898 126.695 386.693 127.921C388.065 128.378 389.56 128.437 390.918 128.945C394.054 130.111 395.97 133.445 396.404 136.76C396.838 140.076 396.098 143.428 395.348 146.693L393.588 154.334C393.199 156.026 392.902 158.061 394.15 159.269C394.74 159.757 395.432 160.105 396.175 160.288C399.376 161.331 402.942 162.355 405.951 160.878C407.373 160.174 408.488 158.985 409.508 157.769C413.97 152.51 416.937 145.623 419.205 139.152Z" fill="#F529B1"/>
<path d="M455.293 294.657C454.662 298.841 452.357 302.957 448.585 304.873C446.324 305.988 443.714 306.169 441.32 305.376C439.667 304.861 438.241 303.792 437.283 302.348C436.788 301.566 436.423 300.709 436.2 299.81C436.2 299.765 436.177 299.714 436.168 299.669C435.824 298.051 435.681 296.396 435.742 294.744C435.741 292.177 435.894 289.613 436.2 287.065C436.455 284.92 436.877 282.798 437.461 280.718C438.312 277.75 439.537 274.892 440.662 272.029C441.247 270.52 441.809 269.007 442.271 267.456C442.55 266.542 442.788 265.6 442.98 264.649L443.049 264.306C443.085 264.114 443.117 263.922 443.149 263.73C443.606 261.123 443.739 258.425 444.914 256.07C447.657 250.541 452.997 251.954 453.811 257.053C453.873 257.448 453.908 257.847 453.916 258.246C454.04 264.699 451.479 271.005 452.65 277.48C452.98 279.06 453.395 280.62 453.894 282.154C454.305 283.567 454.675 284.998 454.959 286.448C455.533 289.146 455.646 291.921 455.293 294.657Z" fill="#BE6F72"/>
<path d="M457.807 222.906C457.931 225.549 457.807 228.225 458.338 230.818C459.577 236.945 464.281 242.369 463.76 248.597C463.632 250.116 463.07 251.748 461.744 252.498C460.418 253.248 458.223 253.189 457.789 254.698C457.665 255.119 457.73 255.576 457.592 255.992C457.304 256.879 456.221 257.259 455.306 257.236C454.392 257.213 453.477 256.911 452.531 256.989C449.216 257.268 448 261.704 445.047 263.226C443.058 264.251 440.474 263.684 438.833 262.17C437.192 260.656 436.474 258.297 436.602 256.061C436.698 254.373 437.233 252.745 437.516 251.081C438.033 248.113 437.763 245.072 437.493 242.072C437.096 237.677 436.684 233.228 435.239 229.062C434.558 227.095 433.653 225.216 433.063 223.222C432.222 220.4 432.03 217.432 431.943 214.492C431.765 208.305 432.19 201.688 435.884 196.712C438.659 192.981 442.637 189.949 445.778 186.496C447.744 184.333 448.311 183.656 450.483 185.49C452.27 186.995 454.14 189.071 454.342 191.11C454.89 196.337 454.342 201.477 455.32 206.8C456.298 212.123 457.551 217.442 457.807 222.906Z" fill="#F529B1"/>
<path d="M410.385 122.186C423.263 122.186 433.703 111.744 433.703 98.8638C433.703 85.9833 423.263 75.5415 410.385 75.5415C397.508 75.5415 387.068 85.9833 387.068 98.8638C387.068 111.744 397.508 122.186 410.385 122.186Z" fill="#BE6F72"/>
<path d="M431.737 143.478C432.249 142.76 432.857 141.987 433.726 141.836C434.382 141.787 435.038 141.925 435.619 142.234L441.759 144.799C443.418 142.059 444.397 138.96 444.612 135.763C444.74 133.801 444.585 131.812 444.96 129.882C445.517 127.02 447.214 124.454 447.607 121.564C447.918 119.232 447.355 116.886 447.017 114.558C445.975 107.369 447.095 100.034 446.496 92.7953C445.897 85.5563 442.994 77.8005 436.538 74.4759C434.709 73.5613 432.738 73.0125 430.837 72.29C426.598 70.6757 422.799 68.092 418.611 66.3451C414.423 64.5982 409.503 63.7979 405.443 65.8055C401.383 67.813 399.019 73.4607 401.658 77.1465C402.526 78.3584 403.797 79.2181 405.013 80.0915C407.487 81.8613 410.011 84.0472 410.582 87.0379C411.606 92.4203 406.01 96.6412 404.433 101.905C403.85 103.96 403.799 106.13 404.282 108.211C404.963 111.33 406.627 114.275 406.568 117.467C406.522 120.965 404.428 124.134 404.035 127.614C403.893 128.89 403.98 130.184 403.82 131.455C403.538 133.132 403.042 134.766 402.343 136.317C398.686 145.463 394.978 154.705 389.542 162.927C395.362 163.026 401.115 161.681 406.289 159.012C405.546 162.537 404.121 165.883 402.096 168.863C406.748 168.324 411.223 166.762 415.2 164.29C414.235 167.746 412.837 171.066 411.039 174.172C411.195 173.907 414.071 173.257 414.601 172.955C415.691 172.335 416.568 171.4 417.116 170.271C418.67 167.491 419.64 164.139 421.08 161.249C424.159 155.054 427.723 149.112 431.737 143.478V143.478Z" fill="#41013C"/>
<path d="M254.898 3.52118C253.791 3.63277 252.676 3.65876 251.565 3.59892C251.376 3.57822 251.186 3.63275 251.036 3.75079C250.886 3.86882 250.789 4.0409 250.765 4.23L248.639 20.1806C248.475 21.3385 248.001 22.4304 247.267 23.3406C246.662 24.0648 246.212 24.9058 245.946 25.8113C245.679 26.7167 245.601 27.6673 245.717 28.6041V55.6991C245.717 55.6991 245.58 59.3118 248.355 59.3118C251.677 59.7292 255.038 59.7292 258.359 59.3118C258.359 59.3118 260.581 58.8911 260.581 55.5573V28.8785C260.751 27.9477 260.716 26.9911 260.479 26.0752C260.242 25.1592 259.809 24.3057 259.21 23.5738C258.5 22.6604 258.041 21.5774 257.879 20.4321L255.671 4.14768C255.646 3.9646 255.552 3.79794 255.408 3.68157C255.265 3.5652 255.082 3.50785 254.898 3.52118Z" fill="#41013C"/>
<path d="M254.912 29.0889H251.542C248.752 29.0889 246.49 31.3512 246.49 34.142V46.823C246.49 49.6137 248.752 51.8761 251.542 51.8761H254.912C257.702 51.8761 259.964 49.6137 259.964 46.823V34.142C259.964 31.3512 257.702 29.0889 254.912 29.0889Z" fill="#F529B1"/>
<path d="M286.445 26.8434C285.338 26.955 284.224 26.981 283.112 26.9212C282.923 26.9005 282.733 26.955 282.583 27.0731C282.434 27.1911 282.336 27.3632 282.312 27.5523L280.186 43.5029C280.023 44.6608 279.549 45.7527 278.815 46.6628C278.209 47.3871 277.76 48.2281 277.493 49.1335C277.226 50.039 277.149 50.9896 277.265 51.9264V79.0214C277.265 79.0214 277.128 82.6341 279.903 82.6341C283.224 83.0515 286.585 83.0515 289.906 82.6341C289.906 82.6341 292.129 82.2133 292.129 78.8796V52.2007C292.298 51.2699 292.263 50.3134 292.026 49.3974C291.789 48.4815 291.356 47.6279 290.757 46.8961C290.047 45.9826 289.589 44.8997 289.426 43.7544L287.218 27.47C287.193 27.2869 287.099 27.1202 286.956 27.0038C286.812 26.8875 286.63 26.8301 286.445 26.8434Z" fill="#41013C"/>
<path d="M286.459 52.4111H283.089C280.299 52.4111 278.037 54.6735 278.037 57.4643V70.1452C278.037 72.936 280.299 75.1984 283.089 75.1984H286.459C289.249 75.1984 291.511 72.936 291.511 70.1452V57.4643C291.511 54.6735 289.249 52.4111 286.459 52.4111Z" fill="#F529B1"/>
</g>
<defs>
<clipPath id="clip0">
<rect width="519" height="326" fill="white"/>
</clipPath>
</defs>
</svg>
