<svg width="411" height="356" viewBox="0 0 411 356" fill="none" xmlns="http://www.w3.org/2000/svg">
<path d="M412.399 353.692H-2.39884C-2.55828 353.692 -2.71119 353.628 -2.82393 353.515C-2.93666 353.402 -3 353.249 -3 353.089C-3 352.93 -2.93666 352.777 -2.82393 352.664C-2.71119 352.551 -2.55828 352.487 -2.39884 352.487H412.399C412.558 352.487 412.711 352.551 412.824 352.664C412.937 352.777 413 352.93 413 353.089C413 353.249 412.937 353.402 412.824 353.515C412.711 353.628 412.558 353.692 412.399 353.692Z" fill="#CCCCCC"/>
<path d="M262.587 250.724H188.656C187.224 250.723 185.852 250.152 184.84 249.138C183.827 248.124 183.258 246.75 183.256 245.316V204.545C183.258 203.111 183.827 201.736 184.84 200.722C185.852 199.708 187.224 199.138 188.656 199.136H262.587C264.019 199.138 265.391 199.708 266.403 200.722C267.416 201.736 267.985 203.111 267.987 204.545V245.316C267.985 246.75 267.416 248.124 266.403 249.138C265.391 250.152 264.019 250.723 262.587 250.724Z" fill="#3F3D56"/>
<path d="M262.587 203.299H188.656C188.326 203.3 188.01 203.431 187.777 203.665C187.544 203.898 187.413 204.215 187.412 204.545V245.317C187.413 245.647 187.544 245.964 187.777 246.197C188.01 246.431 188.326 246.562 188.656 246.563H262.587C262.917 246.562 263.233 246.431 263.466 246.197C263.699 245.964 263.83 245.647 263.831 245.317V204.545C263.83 204.215 263.699 203.898 263.466 203.665C263.233 203.431 262.917 203.3 262.587 203.299Z" fill="white"/>
<path d="M231.927 232.165C231.927 232.165 223.077 230.122 218.209 233.867C213.341 237.612 224.404 246.124 224.404 246.124L231.927 232.165Z" fill="#3F3D56"/>
<path d="M226.055 228.305C230.666 228.305 234.403 224.561 234.403 219.943C234.403 215.325 230.666 211.581 226.055 211.581C221.444 211.581 217.707 215.325 217.707 219.943C217.707 224.561 221.444 228.305 226.055 228.305Z" fill="#EDB36F"/>
<path d="M219.6 208.205C220.156 207.258 220.963 206.484 221.931 205.968C222.9 205.452 223.991 205.215 225.086 205.281C226.231 205.425 227.348 205.738 228.402 206.211L233.859 208.343C235.271 208.895 236.818 209.571 237.431 210.959C238 212.248 237.575 213.737 237.146 215.079L235.104 221.457C234.878 220.014 234.489 218.6 233.947 217.244C233.395 215.878 232.398 214.74 231.119 214.014C229.701 213.286 228.03 213.301 226.439 213.377C224.185 213.486 221.734 213.773 220.133 215.366C219.283 216.27 218.707 217.397 218.471 218.617C218.239 219.83 218.123 221.062 218.123 222.297C217.198 220.705 216.42 219.034 215.797 217.302C215.284 216.012 214.992 214.645 214.932 213.258C214.879 211.86 215.342 210.49 216.234 209.413C216.686 208.886 217.277 208.496 217.938 208.288C218.6 208.079 219.307 208.06 219.979 208.232L219.6 208.205Z" fill="#525252"/>
<path d="M245.989 239.416C245.91 239.133 245.75 238.88 245.529 238.689C245.308 238.497 245.035 238.375 244.744 238.338C244.725 238.325 244.705 238.312 244.684 238.302L232.221 231.306C231.865 231.106 231.446 231.052 231.051 231.153C230.656 231.255 230.316 231.506 230.1 231.853L226.692 237.381L221.558 232.238L221.476 232.156C221.213 231.893 220.865 231.73 220.494 231.698C220.122 231.665 219.752 231.765 219.446 231.979L209.204 239.163C209.186 239.163 209.168 239.169 209.15 239.169C208.66 239.251 208.212 239.498 207.881 239.869C207.55 240.24 207.355 240.713 207.328 241.21L207.064 246.563H247.966L245.989 239.416Z" fill="#8952FE"/>
<path d="M268.817 245.732H260.926C260.926 245.511 260.838 245.3 260.682 245.144C260.527 244.988 260.315 244.9 260.095 244.9H257.603C257.383 244.9 257.171 244.988 257.016 245.144C256.86 245.3 256.772 245.511 256.772 245.732H254.28C254.28 245.511 254.193 245.3 254.037 245.144C253.881 244.988 253.67 244.9 253.45 244.9H250.957C250.737 244.9 250.526 244.988 250.37 245.144C250.214 245.3 250.127 245.511 250.127 245.732H247.635C247.635 245.511 247.547 245.3 247.391 245.144C247.236 244.988 247.024 244.9 246.804 244.9H244.312C244.092 244.9 243.88 244.988 243.725 245.144C243.569 245.3 243.481 245.511 243.481 245.732H240.989C240.989 245.511 240.902 245.3 240.746 245.144C240.59 244.988 240.379 244.9 240.159 244.9H237.666C237.446 244.9 237.235 244.988 237.079 245.144C236.923 245.3 236.836 245.511 236.836 245.732H234.344C234.344 245.511 234.256 245.3 234.1 245.144C233.945 244.988 233.733 244.9 233.513 244.9H231.021C230.801 244.9 230.589 244.988 230.434 245.144C230.278 245.3 230.19 245.511 230.19 245.732H227.698C227.698 245.511 227.611 245.3 227.455 245.144C227.299 244.988 227.088 244.9 226.867 244.9H224.375C224.155 244.9 223.944 244.988 223.788 245.144C223.632 245.3 223.545 245.511 223.545 245.732H221.053C221.053 245.511 220.965 245.3 220.809 245.144C220.654 244.988 220.442 244.9 220.222 244.9H217.73C217.51 244.9 217.298 244.988 217.143 245.144C216.987 245.3 216.899 245.511 216.899 245.732H214.407C214.407 245.511 214.32 245.3 214.164 245.144C214.008 244.988 213.797 244.9 213.577 244.9H211.084C210.864 244.9 210.653 244.988 210.497 245.144C210.341 245.3 210.254 245.511 210.254 245.732H207.762C207.762 245.511 207.674 245.3 207.518 245.144C207.363 244.988 207.151 244.9 206.931 244.9H204.439C204.219 244.9 204.007 244.988 203.852 245.144C203.696 245.3 203.608 245.511 203.608 245.732H201.116C201.116 245.511 201.029 245.3 200.873 245.144C200.717 244.988 200.506 244.9 200.286 244.9H197.793C197.573 244.9 197.362 244.988 197.206 245.144C197.05 245.3 196.963 245.511 196.963 245.732H194.471C194.471 245.511 194.383 245.3 194.227 245.144C194.072 244.988 193.86 244.9 193.64 244.9H191.148C190.928 244.9 190.716 244.988 190.561 245.144C190.405 245.3 190.317 245.511 190.317 245.732H182.426C181.765 245.733 181.133 245.996 180.666 246.464C180.2 246.932 179.938 247.567 179.938 248.228C179.938 248.89 180.2 249.524 180.666 249.992C181.133 250.46 181.765 250.723 182.426 250.724H268.817C269.478 250.724 270.112 250.461 270.579 249.993C271.047 249.525 271.309 248.89 271.309 248.228C271.309 247.566 271.047 246.931 270.579 246.463C270.112 245.995 269.478 245.732 268.817 245.732Z" fill="#3F3D56"/>
<path d="M169.579 231.236V247.811H128.122C127.011 247.849 125.904 247.664 124.867 247.265C123.829 246.865 122.883 246.261 122.083 245.488C121.284 244.715 120.648 243.788 120.214 242.763C119.779 241.738 119.556 240.637 119.556 239.523C119.556 238.41 119.779 237.308 120.214 236.283C120.648 235.259 121.284 234.332 122.083 233.559C122.883 232.785 123.829 232.181 124.867 231.782C125.904 231.383 127.011 231.197 128.122 231.236H169.579Z" fill="#F2F2F2"/>
<path d="M170.598 247.683C170.598 247.852 170.531 248.014 170.411 248.134C170.292 248.253 170.13 248.321 169.961 248.321H127.384C125.071 248.321 122.854 247.4 121.219 245.763C119.583 244.125 118.665 241.903 118.665 239.587C118.665 237.271 119.583 235.049 121.219 233.412C122.854 231.774 125.071 230.854 127.384 230.854H169.961C170.13 230.854 170.292 230.921 170.411 231.04C170.531 231.16 170.598 231.322 170.598 231.491C170.598 231.66 170.531 231.822 170.411 231.942C170.292 232.061 170.13 232.128 169.961 232.128H127.384C125.41 232.13 123.518 232.917 122.123 234.315C120.728 235.714 119.944 237.61 119.944 239.587C119.944 241.564 120.728 243.46 122.123 244.859C123.518 246.257 125.41 247.044 127.384 247.046H169.961C170.13 247.046 170.292 247.113 170.411 247.232C170.531 247.352 170.598 247.514 170.598 247.683Z" fill="#F16565"/>
<path d="M169.579 235.061H125.029C125.012 235.061 124.996 235.058 124.98 235.051C124.965 235.045 124.95 235.036 124.938 235.024C124.927 235.012 124.917 234.998 124.911 234.982C124.904 234.967 124.901 234.95 124.901 234.933C124.901 234.916 124.904 234.9 124.911 234.884C124.917 234.869 124.927 234.855 124.938 234.843C124.95 234.831 124.965 234.821 124.98 234.815C124.996 234.809 125.012 234.806 125.029 234.806H169.579C169.613 234.806 169.645 234.819 169.669 234.843C169.692 234.867 169.706 234.9 169.706 234.933C169.706 234.967 169.692 234.999 169.669 235.023C169.645 235.047 169.613 235.06 169.579 235.061Z" fill="#CCCCCC"/>
<path d="M169.579 238.121H125.029C125.012 238.121 124.996 238.118 124.98 238.111C124.965 238.105 124.95 238.096 124.938 238.084C124.927 238.072 124.917 238.058 124.911 238.042C124.904 238.027 124.901 238.01 124.901 237.993C124.901 237.976 124.904 237.96 124.911 237.944C124.917 237.929 124.927 237.915 124.938 237.903C124.95 237.891 124.965 237.882 124.98 237.875C124.996 237.869 125.012 237.866 125.029 237.866H169.579C169.613 237.866 169.645 237.879 169.669 237.903C169.692 237.927 169.706 237.96 169.706 237.993C169.706 238.027 169.692 238.059 169.669 238.083C169.645 238.107 169.613 238.12 169.579 238.121Z" fill="#CCCCCC"/>
<path d="M169.579 241.181H125.029C125.012 241.181 124.996 241.177 124.98 241.171C124.965 241.165 124.95 241.155 124.938 241.144C124.927 241.132 124.917 241.118 124.911 241.102C124.904 241.087 124.901 241.07 124.901 241.053C124.901 241.036 124.904 241.02 124.911 241.004C124.917 240.989 124.927 240.974 124.938 240.963C124.95 240.951 124.965 240.941 124.98 240.935C124.996 240.929 125.012 240.925 125.029 240.926H169.579C169.613 240.926 169.645 240.939 169.669 240.963C169.692 240.987 169.706 241.019 169.706 241.053C169.706 241.087 169.692 241.119 169.669 241.143C169.645 241.167 169.613 241.18 169.579 241.181Z" fill="#CCCCCC"/>
<path d="M169.579 244.241H125.029C125.012 244.241 124.996 244.237 124.98 244.231C124.965 244.225 124.95 244.215 124.938 244.204C124.927 244.192 124.917 244.178 124.911 244.162C124.904 244.147 124.901 244.13 124.901 244.113C124.901 244.096 124.904 244.08 124.911 244.064C124.917 244.049 124.927 244.034 124.938 244.023C124.95 244.011 124.965 244.001 124.98 243.995C124.996 243.989 125.012 243.985 125.029 243.986H169.579C169.613 243.986 169.645 243.999 169.669 244.023C169.692 244.047 169.706 244.079 169.706 244.113C169.706 244.147 169.692 244.179 169.669 244.203C169.645 244.227 169.613 244.24 169.579 244.241Z" fill="#CCCCCC"/>
<path d="M161.764 213.774V230.348H120.307C119.196 230.387 118.089 230.201 117.052 229.802C116.014 229.403 115.067 228.799 114.268 228.025C113.469 227.252 112.833 226.325 112.399 225.301C111.964 224.276 111.741 223.174 111.741 222.061C111.741 220.948 111.964 219.846 112.399 218.821C112.833 217.796 113.469 216.87 114.268 216.096C115.067 215.323 116.014 214.719 117.052 214.32C118.089 213.921 119.196 213.735 120.307 213.774H161.764Z" fill="#F2F2F2"/>
<path d="M162.783 230.221C162.783 230.39 162.716 230.552 162.596 230.671C162.477 230.791 162.315 230.858 162.146 230.858H119.569C118.424 230.858 117.29 230.632 116.232 230.193C115.174 229.754 114.213 229.111 113.404 228.3C112.594 227.489 111.952 226.526 111.513 225.467C111.075 224.407 110.85 223.272 110.85 222.125C110.85 220.978 111.075 219.842 111.513 218.782C111.952 217.723 112.594 216.76 113.404 215.949C114.213 215.138 115.174 214.495 116.232 214.056C117.29 213.617 118.424 213.391 119.569 213.391H162.146C162.315 213.391 162.477 213.458 162.596 213.578C162.716 213.697 162.783 213.86 162.783 214.029C162.783 214.198 162.716 214.36 162.596 214.479C162.477 214.599 162.315 214.666 162.146 214.666H119.569C117.595 214.668 115.703 215.454 114.308 216.853C112.913 218.252 112.129 220.148 112.129 222.125C112.129 224.102 112.913 225.998 114.308 227.396C115.703 228.795 117.595 229.581 119.569 229.583H162.146C162.315 229.583 162.477 229.65 162.596 229.77C162.716 229.89 162.783 230.052 162.783 230.221Z" fill="#F16565"/>
<path d="M161.764 217.598H117.214C117.197 217.598 117.181 217.595 117.165 217.589C117.149 217.582 117.135 217.573 117.123 217.561C117.111 217.549 117.102 217.535 117.096 217.52C117.089 217.504 117.086 217.488 117.086 217.471C117.086 217.454 117.089 217.437 117.096 217.422C117.102 217.406 117.111 217.392 117.123 217.38C117.135 217.368 117.149 217.359 117.165 217.353C117.181 217.346 117.197 217.343 117.214 217.343H161.764C161.798 217.343 161.83 217.357 161.854 217.381C161.877 217.405 161.891 217.437 161.891 217.471C161.891 217.504 161.877 217.537 161.854 217.561C161.83 217.584 161.798 217.598 161.764 217.598Z" fill="#CCCCCC"/>
<path d="M161.764 220.659H117.214C117.197 220.659 117.181 220.655 117.165 220.649C117.149 220.643 117.135 220.633 117.123 220.622C117.111 220.61 117.102 220.596 117.096 220.58C117.089 220.565 117.086 220.548 117.086 220.531C117.086 220.514 117.089 220.498 117.096 220.482C117.102 220.467 117.111 220.452 117.123 220.441C117.135 220.429 117.149 220.419 117.165 220.413C117.181 220.407 117.197 220.403 117.214 220.404H161.764C161.798 220.404 161.83 220.417 161.854 220.441C161.877 220.465 161.891 220.497 161.891 220.531C161.891 220.565 161.877 220.597 161.854 220.621C161.83 220.645 161.798 220.658 161.764 220.659Z" fill="#CCCCCC"/>
<path d="M161.764 223.718H117.214C117.197 223.718 117.181 223.715 117.165 223.709C117.149 223.703 117.135 223.693 117.123 223.681C117.111 223.669 117.102 223.655 117.096 223.64C117.089 223.624 117.086 223.608 117.086 223.591C117.086 223.574 117.089 223.557 117.096 223.542C117.102 223.526 117.111 223.512 117.123 223.5C117.135 223.489 117.149 223.479 117.165 223.473C117.181 223.466 117.197 223.463 117.214 223.463H161.764C161.798 223.464 161.83 223.477 161.854 223.501C161.877 223.525 161.891 223.557 161.891 223.591C161.891 223.625 161.877 223.657 161.854 223.681C161.83 223.705 161.798 223.718 161.764 223.718Z" fill="#CCCCCC"/>
<path d="M161.764 226.778H117.214C117.197 226.778 117.181 226.775 117.165 226.769C117.149 226.762 117.135 226.753 117.123 226.741C117.111 226.729 117.102 226.715 117.096 226.7C117.089 226.684 117.086 226.668 117.086 226.651C117.086 226.634 117.089 226.617 117.096 226.602C117.102 226.586 117.111 226.572 117.123 226.56C117.135 226.548 117.149 226.539 117.165 226.533C117.181 226.526 117.197 226.523 117.214 226.523H161.764C161.798 226.523 161.83 226.537 161.854 226.561C161.877 226.585 161.891 226.617 161.891 226.651C161.891 226.684 161.877 226.717 161.854 226.741C161.83 226.764 161.798 226.778 161.764 226.778Z" fill="#CCCCCC"/>
<path d="M371.343 248.676H127.273C126.237 248.676 125.243 249.088 124.51 249.822C123.777 250.556 123.366 251.552 123.366 252.59C123.366 253.628 123.777 254.623 124.51 255.357C125.243 256.091 126.237 256.504 127.273 256.504H134.187V350.138C134.187 351.176 134.598 352.171 135.331 352.905C136.064 353.639 137.058 354.052 138.094 354.052C139.13 354.052 140.124 353.639 140.857 352.905C141.59 352.171 142.002 351.176 142.002 350.138L142.061 256.504H356.013V350.138C356.013 351.176 356.425 352.171 357.158 352.905C357.89 353.639 358.884 354.052 359.921 354.052C360.957 354.052 361.951 353.639 362.684 352.905C363.416 352.171 363.828 351.176 363.828 350.138V258.567L364.965 256.504H371.343C372.379 256.504 373.373 256.091 374.106 255.357C374.838 254.623 375.25 253.628 375.25 252.59C375.25 251.552 374.838 250.556 374.106 249.822C373.373 249.088 372.379 248.676 371.343 248.676Z" fill="#CCCCCC"/>
<path d="M209.991 306.724V292.273C209.991 291.634 209.738 291.021 209.287 290.569C208.836 290.118 208.224 289.864 207.587 289.864H152.882C152.244 289.864 151.632 290.118 151.181 290.569C150.73 291.021 150.477 291.634 150.477 292.273V306.724H209.991Z" fill="#B6C2C9"/>
<path d="M209.992 312.143H150.477V330.81H209.992V312.143Z" fill="#B6C2C9"/>
<path d="M150.477 336.229V350.681C150.477 351.32 150.73 351.932 151.181 352.384C151.632 352.836 152.244 353.09 152.882 353.09H207.587C208.224 353.09 208.836 352.836 209.287 352.384C209.738 351.932 209.991 351.32 209.991 350.681V336.229H150.477Z" fill="#B6C2C9"/>
<path d="M179.934 300.703C180.93 300.703 181.737 299.894 181.737 298.896C181.737 297.899 180.93 297.09 179.934 297.09C178.938 297.09 178.13 297.899 178.13 298.896C178.13 299.894 178.938 300.703 179.934 300.703Z" fill="#2897D5"/>
<path d="M179.934 324.789C180.93 324.789 181.737 323.98 181.737 322.982C181.737 321.985 180.93 321.176 179.934 321.176C178.938 321.176 178.13 321.985 178.13 322.982C178.13 323.98 178.938 324.789 179.934 324.789Z" fill="#2897D5"/>
<path d="M180.03 348.364C181.026 348.364 181.834 347.556 181.834 346.558C181.834 345.56 181.026 344.751 180.03 344.751C179.034 344.751 178.227 345.56 178.227 346.558C178.227 347.556 179.034 348.364 180.03 348.364Z" fill="#2897D5"/>
<path d="M203.244 273.386V289.961H161.787C160.676 290 159.569 289.814 158.532 289.415C157.494 289.016 156.547 288.412 155.748 287.638C154.948 286.865 154.313 285.938 153.878 284.913C153.444 283.889 153.22 282.787 153.22 281.674C153.22 280.56 153.444 279.459 153.878 278.434C154.313 277.409 154.948 276.482 155.748 275.709C156.547 274.936 157.494 274.331 158.532 273.932C159.569 273.533 160.676 273.348 161.787 273.386H203.244Z" fill="#F2F2F2"/>
<path d="M204.262 289.833C204.262 290.002 204.195 290.165 204.076 290.284C203.957 290.404 203.795 290.471 203.626 290.471H161.049C159.903 290.472 158.768 290.247 157.71 289.808C156.651 289.37 155.689 288.727 154.879 287.916C154.068 287.104 153.425 286.141 152.987 285.081C152.548 284.021 152.322 282.885 152.322 281.737C152.322 280.59 152.548 279.454 152.987 278.394C153.425 277.334 154.068 276.37 154.879 275.559C155.689 274.748 156.651 274.105 157.71 273.667C158.768 273.228 159.903 273.003 161.049 273.004H203.626C203.795 273.004 203.957 273.071 204.076 273.191C204.195 273.31 204.262 273.472 204.262 273.641C204.262 273.81 204.195 273.973 204.076 274.092C203.957 274.212 203.795 274.279 203.626 274.279H161.049C159.075 274.281 157.183 275.067 155.788 276.466C154.393 277.864 153.609 279.76 153.609 281.737C153.609 283.714 154.393 285.61 155.788 287.009C157.183 288.408 159.075 289.194 161.049 289.196H203.626C203.795 289.196 203.957 289.263 204.076 289.383C204.195 289.502 204.262 289.664 204.262 289.833Z" fill="#F16565"/>
<path d="M203.244 277.211H158.694C158.677 277.211 158.66 277.208 158.645 277.202C158.629 277.195 158.615 277.186 158.603 277.174C158.591 277.162 158.582 277.148 158.575 277.133C158.569 277.117 158.566 277.1 158.566 277.084C158.566 277.067 158.569 277.05 158.575 277.035C158.582 277.019 158.591 277.005 158.603 276.993C158.615 276.981 158.629 276.972 158.645 276.966C158.66 276.959 158.677 276.956 158.694 276.956H203.244C203.278 276.956 203.31 276.97 203.333 276.994C203.357 277.018 203.37 277.05 203.37 277.084C203.37 277.117 203.357 277.15 203.333 277.173C203.31 277.197 203.278 277.211 203.244 277.211Z" fill="#CCCCCC"/>
<path d="M203.244 280.271H158.694C158.677 280.271 158.66 280.268 158.645 280.262C158.629 280.255 158.615 280.246 158.603 280.234C158.591 280.222 158.582 280.208 158.575 280.193C158.569 280.177 158.566 280.16 158.566 280.144C158.566 280.127 158.569 280.11 158.575 280.095C158.582 280.079 158.591 280.065 158.603 280.053C158.615 280.041 158.629 280.032 158.645 280.026C158.66 280.019 158.677 280.016 158.694 280.016H203.244C203.278 280.016 203.31 280.03 203.333 280.054C203.357 280.078 203.37 280.11 203.37 280.144C203.37 280.177 203.357 280.21 203.333 280.233C203.31 280.257 203.278 280.271 203.244 280.271Z" fill="#CCCCCC"/>
<path d="M203.244 283.331H158.694C158.677 283.331 158.66 283.328 158.645 283.321C158.629 283.315 158.615 283.306 158.603 283.294C158.591 283.282 158.582 283.268 158.575 283.252C158.569 283.237 158.566 283.22 158.566 283.203C158.566 283.187 158.569 283.17 158.575 283.154C158.582 283.139 158.591 283.125 158.603 283.113C158.615 283.101 158.629 283.092 158.645 283.085C158.66 283.079 158.677 283.076 158.694 283.076H203.244C203.278 283.076 203.31 283.09 203.333 283.114C203.357 283.137 203.37 283.17 203.37 283.203C203.37 283.237 203.357 283.269 203.333 283.293C203.31 283.317 203.278 283.331 203.244 283.331Z" fill="#CCCCCC"/>
<path d="M203.244 286.391H158.694C158.677 286.391 158.66 286.388 158.645 286.382C158.629 286.375 158.615 286.366 158.603 286.354C158.591 286.342 158.582 286.328 158.575 286.312C158.569 286.297 158.566 286.28 158.566 286.263C158.566 286.247 158.569 286.23 158.575 286.214C158.582 286.199 158.591 286.185 158.603 286.173C158.615 286.161 158.629 286.152 158.645 286.145C158.66 286.139 158.677 286.136 158.694 286.136H203.244C203.278 286.136 203.31 286.15 203.333 286.174C203.357 286.198 203.37 286.23 203.37 286.263C203.37 286.297 203.357 286.329 203.333 286.353C203.31 286.377 203.278 286.391 203.244 286.391Z" fill="#CCCCCC"/>
<path d="M300.922 243.498H282.034C281.855 243.498 281.678 243.54 281.517 243.619L276.75 246.009C276.593 246.076 276.459 246.188 276.365 246.33C276.271 246.473 276.221 246.64 276.221 246.81C276.221 246.981 276.271 247.148 276.365 247.29C276.459 247.433 276.593 247.544 276.75 247.611L281.517 250.002C281.678 250.081 281.855 250.122 282.034 250.122H300.922C301.182 250.137 301.438 250.049 301.634 249.877C301.83 249.704 301.95 249.461 301.968 249.201V244.42C301.95 244.159 301.83 243.917 301.634 243.744C301.438 243.572 301.182 243.483 300.922 243.498Z" fill="#3F3D56"/>
<path d="M301.968 244.42V249.201C301.95 249.461 301.83 249.704 301.634 249.877C301.438 250.049 301.183 250.137 300.922 250.122H297.159V243.498H300.922C301.183 243.483 301.438 243.572 301.634 243.744C301.83 243.917 301.95 244.159 301.968 244.42Z" fill="#E28210"/>
<path d="M355.795 288.508H326.933C326.933 289.339 299 288.508 299 288.508C298.533 288.86 296.296 290.77 295.92 291.218C294.79 292.568 294.172 294.274 294.176 296.035V297.239C294.177 299.235 294.969 301.15 296.378 302.561C297.787 303.972 299.698 304.766 301.691 304.766H355.795C357.787 304.765 359.697 303.971 361.106 302.56C362.515 301.149 363.307 299.235 363.309 297.239V296.035C363.306 294.04 362.514 292.127 361.105 290.716C359.696 289.305 357.787 288.511 355.795 288.508Z" fill="#3F3D56"/>
<path d="M324.4 355.048H332.215V304.467H324.4V355.048Z" fill="#3F3D56"/>
<path d="M302.157 354.773C302.157 355.618 314 355.1 328.608 355.1C343.217 355.1 355.059 355.618 355.059 354.773C355.059 353.927 343.217 347.22 328.608 347.22C314 347.22 302.157 353.927 302.157 354.773Z" fill="#3F3D56"/>
<path d="M62.5694 270.568C58.7647 271.908 54.6798 272.243 50.7081 271.543C46.7364 270.842 43.0118 269.128 39.8931 266.567C31.9506 259.89 29.4604 248.889 27.4342 238.703C25.4365 228.66 23.4389 218.617 21.4412 208.574L33.9883 217.227C43.0114 223.451 52.2378 229.873 58.4854 238.887C64.733 247.902 67.4601 260.207 62.4403 269.96" fill="#67CE6B"/>
<path d="M61.4967 307.045C62.7667 297.78 64.0725 288.395 63.1817 279.031C62.3906 270.714 59.8574 262.59 54.7001 255.93C51.9626 252.401 48.6316 249.377 44.8569 246.995C43.8725 246.373 42.9666 247.936 43.9466 248.555C50.478 252.69 55.5298 258.795 58.3737 265.991C61.5146 273.993 62.019 282.716 61.4778 291.217C61.1505 296.358 60.4567 301.465 59.7577 306.565C59.7025 306.796 59.7369 307.039 59.8538 307.245C59.9708 307.451 60.1615 307.606 60.3875 307.676C60.618 307.739 60.8638 307.707 61.0715 307.589C61.2791 307.471 61.4319 307.276 61.4967 307.045Z" fill="#F2F2F2"/>
<path d="M49.2652 290.65C47.6335 293.134 45.3905 295.155 42.7525 296.519C40.1144 297.883 37.1702 298.543 34.2034 298.436C26.5789 298.074 20.2224 292.744 14.5004 287.683L-2.42407 272.716L8.77715 272.179C16.8324 271.792 25.0955 271.432 32.7678 273.92C40.4402 276.409 47.516 282.397 48.919 290.351" fill="#67CE6B"/>
<path d="M65.0858 312.372C58.9734 301.538 51.8836 289.498 39.2152 285.65C35.6928 284.584 31.9993 284.202 28.3337 284.525C27.1784 284.625 27.4668 286.408 28.6201 286.309C34.7645 285.798 40.8971 287.423 45.9853 290.911C50.8817 294.249 54.694 298.89 57.9208 303.812C59.8972 306.826 61.6676 309.969 63.4384 313.107C64.0043 314.11 65.6583 313.386 65.0858 312.372Z" fill="#F2F2F2"/>
<path d="M74.8797 323.775C74.6737 321.384 73.817 319.097 72.4026 317.16C70.9883 315.224 69.0707 313.714 66.8586 312.793V306.531H56.3715V312.991C54.2683 313.956 52.4583 315.463 51.1259 317.357C49.7936 319.252 48.9866 321.466 48.7872 323.775L46.3213 352.487H77.3457L74.8797 323.775Z" fill="#3F3D56"/>
<path d="M311.67 107.963V86.265C311.671 85.664 311.909 85.089 312.333 84.664C312.757 84.239 313.331 84.001 313.931 84H332.288C332.888 84.001 333.462 84.239 333.886 84.664C334.31 85.089 334.548 85.664 334.549 86.265V107.963C334.548 108.564 334.31 109.139 333.886 109.564C333.462 109.988 332.888 110.227 332.288 110.228H313.931C313.331 110.227 312.757 109.988 312.333 109.564C311.909 109.139 311.671 108.564 311.67 107.963Z" fill="#EB0FA0"/>
<path d="M276 118.028V96.329C276.001 95.729 276.239 95.153 276.663 94.728C277.087 94.304 277.661 94.065 278.261 94.064H296.618C297.218 94.065 297.792 94.304 298.216 94.728C298.64 95.153 298.878 95.729 298.879 96.329V118.028C298.878 118.628 298.64 119.204 298.216 119.628C297.792 120.053 297.218 120.292 296.618 120.292H278.261C277.661 120.292 277.087 120.053 276.663 119.628C276.239 119.204 276.001 118.628 276 118.028Z" fill="#0399ED"/>
<path d="M304.637 148.725V127.026C304.637 126.425 304.876 125.85 305.3 125.425C305.723 125.001 306.298 124.762 306.897 124.761H325.255C325.854 124.762 326.429 125.001 326.853 125.425C327.277 125.85 327.515 126.425 327.516 127.026V148.725C327.515 149.325 327.277 149.901 326.853 150.325C326.429 150.75 325.854 150.988 325.255 150.989H306.897C306.298 150.988 305.723 150.75 305.3 150.325C304.876 149.901 304.637 149.325 304.637 148.725Z" fill="#6130C9"/>
<path d="M258 161.895V66.105C258.001 65.017 258.502 63.973 259.391 63.204C260.281 62.434 261.487 62.001 262.745 62H350.255C351.513 62.001 352.719 62.434 353.609 63.204C354.498 63.973 354.999 65.017 355 66.105V161.895C354.999 162.983 354.498 164.027 353.609 164.796C352.719 165.566 351.513 165.999 350.255 166H262.745C261.487 165.999 260.281 165.566 259.391 164.796C258.502 164.027 258.001 162.983 258 161.895ZM262.745 62.912C261.766 62.913 260.828 63.25 260.136 63.849C259.445 64.447 259.055 65.259 259.054 66.105V161.895C259.055 162.741 259.445 163.553 260.136 164.151C260.828 164.75 261.766 165.087 262.745 165.088H350.255C351.234 165.087 352.172 164.75 352.864 164.151C353.555 163.553 353.945 162.741 353.946 161.895V66.105C353.945 65.259 353.555 64.447 352.864 63.849C352.172 63.25 351.234 62.913 350.255 62.912H262.745Z" fill="#BFBFBF"/>
<path d="M42 105.658V4.342C42.0014 3.191 42.5018 2.087 43.3912 1.27299C44.2807 0.458995 45.4867 0.001 46.7446 0H134.255C135.513 0.001 136.719 0.458995 137.609 1.27299C138.498 2.087 138.999 3.191 139 4.342V105.658C138.999 106.809 138.498 107.913 137.609 108.727C136.719 109.541 135.513 109.999 134.255 110H46.7446C45.4867 109.999 44.2807 109.541 43.3912 108.727C42.5018 107.913 42.0014 106.809 42 105.658ZM46.7446 0.964996C45.7662 0.965996 44.8282 1.322 44.1364 1.955C43.4446 2.588 43.0554 3.447 43.0543 4.342V105.658C43.0554 106.553 43.4446 107.412 44.1364 108.045C44.8282 108.678 45.7662 109.034 46.7446 109.035H134.255C135.234 109.034 136.172 108.678 136.864 108.045C137.555 107.412 137.945 106.553 137.946 105.658V4.342C137.945 3.447 137.555 2.588 136.864 1.955C136.172 1.322 135.234 0.965996 134.255 0.964996H46.7446Z" fill="#BFBFBF"/>
<path d="M58 37.158V14.377C58.0007 13.747 58.2511 13.143 58.6963 12.697C59.1416 12.251 59.7452 12.001 60.3749 12H79.6591C80.2887 12.001 80.8924 12.251 81.3376 12.697C81.7828 13.143 82.0333 13.747 82.034 14.377V37.158C82.0333 37.788 81.7828 38.392 81.3376 38.838C80.8924 39.283 80.2887 39.534 79.6591 39.535H60.3749C59.7452 39.534 59.1416 39.283 58.6963 38.838C58.2511 38.392 58.0007 37.788 58 37.158Z" fill="#FA3E3E"/>
<path d="M99 57.157V34.377C99.0007 33.747 99.2511 33.143 99.6964 32.697C100.142 32.251 100.745 32.001 101.375 32H120.659C121.289 32.001 121.892 32.251 122.338 32.697C122.783 33.143 123.033 33.747 123.034 34.377V57.158C123.033 57.788 122.783 58.392 122.338 58.838C121.892 59.283 121.289 59.534 120.659 59.535H101.375C100.745 59.534 100.142 59.283 99.6964 58.838C99.2511 58.392 99.0007 57.788 99 57.157Z" fill="#09BF10"/>
<path d="M64 92.158V69.377C64.0007 68.747 64.2511 68.143 64.6964 67.697C65.1416 67.251 65.7452 67.001 66.3749 67H85.6591C86.2887 67.001 86.8924 67.251 87.3376 67.697C87.7828 68.143 88.0333 68.747 88.034 69.377V92.158C88.0333 92.788 87.7828 93.392 87.3376 93.838C86.8924 94.283 86.2887 94.534 85.6591 94.535H66.3749C65.7452 94.534 65.1416 94.283 64.6964 93.838C64.2511 93.392 64.0007 92.788 64 92.158Z" fill="#F58400"/>
</svg>
